<svg xmlns="http://www.w3.org/2000/svg" xmlns:xlink="http://www.w3.org/1999/xlink" width="305.029" height="274.279" version="1.1" viewBox="0 0 228.772 205.709"><g id="surface1"><path fill="#263147" fill-opacity="1" fill-rule="evenodd" stroke="none" d="M 83.023438 111.269531 L 136.933594 17.898438 C 137.6875 17.90625 138.453125 17.8125 139.21875 17.605469 C 143.722656 16.402344 146.398438 11.769531 145.191406 7.261719 C 143.980469 2.757813 139.351563 0.0820313 134.84375 1.289063 C 130.339844 2.496094 127.664063 7.128906 128.871094 11.636719 C 129.074219 12.398438 129.378906 13.109375 129.761719 13.757813 L 117.15625 35.59375 L 101.554688 8.570313 C 101.203125 7.945313 100.683594 7.40625 100.019531 7.019531 C 98.039063 5.871094 95.507813 6.546875 94.363281 8.527344 L 23.402344 131.429688 C 22.488281 133.011719 22.488281 134.828125 23.402344 136.410156 C 24.316406 137.996094 25.890625 138.902344 27.71875 138.902344 L 92.777344 138.902344 C 95.070313 138.902344 96.925781 137.042969 96.925781 134.753906 C 96.925781 132.460938 95.070313 130.605469 92.777344 130.605469 L 33.441406 130.605469 L 97.945313 18.878906 L 112.339844 43.816406 L 75.800781 107.101563 C 74.703125 109 75.359375 111.449219 77.261719 112.546875 L 77.578125 112.730469 C 79.480469 113.828125 81.925781 113.171875 83.023438 111.269531 Z M 143.910156 98.578125 L 197.816406 191.953125 C 197.433594 192.601563 197.132813 193.3125 196.925781 194.074219 C 195.71875 198.578125 198.394531 203.210938 202.898438 204.417969 C 207.40625 205.625 212.035156 202.953125 213.242188 198.445313 C 214.453125 193.941406 211.777344 189.308594 207.269531 188.101563 C 206.507813 187.894531 205.742188 187.804688 204.988281 187.8125 L 192.378906 165.972656 L 223.582031 165.972656 C 224.300781 165.980469 225.03125 165.804688 225.695313 165.421875 C 227.675781 164.28125 228.359375 161.75 227.21875 159.769531 L 156.261719 36.867188 C 155.347656 35.28125 153.777344 34.375 151.945313 34.375 C 150.117188 34.375 148.546875 35.28125 147.632813 36.867188 L 115.101563 93.207031 C 113.957031 95.191406 114.636719 97.730469 116.621094 98.875 C 118.605469 100.023438 121.144531 99.34375 122.289063 97.359375 L 124.292969 93.886719 L 132.746094 79.246094 L 137.5625 70.90625 L 151.957031 45.972656 L 216.460938 157.695313 L 187.667969 157.695313 L 151.132813 94.410156 C 150.035156 92.507813 147.585938 91.851563 145.683594 92.949219 L 145.367188 93.132813 C 143.46875 94.230469 142.8125 96.675781 143.910156 98.578125 Z M 124.628906 157.636719 L 16.8125 157.632813 C 16.441406 156.976563 15.980469 156.359375 15.417969 155.800781 C 12.121094 152.503906 6.773438 152.503906 3.472656 155.800781 C 0.175781 159.101563 0.175781 164.449219 3.472656 167.746094 C 6.773438 171.046875 12.121094 171.046875 15.417969 167.746094 C 15.980469 167.1875 16.441406 166.570313 16.8125 165.914063 L 42.027344 165.914063 L 26.425781 192.9375 C 26.058594 193.554688 25.847656 194.273438 25.847656 195.042969 C 25.84375 197.328125 27.695313 199.1875 29.980469 199.1875 L 171.898438 199.1875 C 173.726563 199.1875 175.296875 198.28125 176.214844 196.695313 C 177.128906 195.113281 177.128906 193.300781 176.214844 191.714844 L 143.683594 135.371094 C 142.539063 133.386719 140 132.707031 138.015625 133.855469 C 136.03125 135 135.351563 137.539063 136.496094 139.519531 L 138.5 142.996094 L 146.953125 157.636719 L 151.769531 165.972656 L 166.164063 190.910156 L 37.15625 190.910156 L 51.554688 165.972656 L 124.628906 165.972656 C 126.824219 165.972656 128.617188 164.183594 128.617188 161.988281 L 128.617188 161.621094 C 128.617188 159.425781 126.824219 157.636719 124.628906 157.636719"/></g></svg>