<?xml version="1.0" encoding="UTF-8" standalone="no"?>
<!DOCTYPE svg PUBLIC "-//W3C//DTD SVG 1.1//EN"
"http://www.w3.org/Graphics/SVG/1.1/DTD/svg11.dtd">


<!-- Page 1 -->
<svg x="0" y="0" width="349" height="314" viewBox="0 0 349 314" version="1.1" xmlns="http://www.w3.org/2000/svg" xmlns:xlink="http://www.w3.org/1999/xlink"
style="display: block;margin-left: auto;margin-right: auto;">
<defs>
<clipPath id="c_1"><path d="M0,0H349V314H0Z"/></clipPath>
<style type="text/css"><![CDATA[

.g0{
fill: #179AFF;
}

]]></style>

</defs>
<g clip-path="url(#c_1)">
<path d="M0,0
L0,314
L349,314
L349,0 Z " 
fill="#FFFFFF" stroke="none"/>
<path fill-rule="evenodd" d="M126.8,170L209.2,27.3c1.2,.1,2.3,-.1,3.5,-.4c6.9,-1.8,11,-8.9,9.1,-15.8C220,4.2,212.9,.1,206,2c-6.9,1.8,-11,8.9,-9.1,15.8c.3,1.1,.8,2.2,1.3,3.2L179,54.4L155.2,13.1c-.6,-1,-1.4,-1.8,-2.4,-2.4C149.8,9,145.9,10,144.2,13L35.8,200.8c-1.4,2.4,-1.4,5.2,0,7.6c1.4,2.4,3.8,3.8,6.5,3.8h99.4c3.5,0,6.4,-2.8,6.4,-6.3c0,-3.5,-2.9,-6.4,-6.4,-6.4H51.1L149.6,28.8l22,38.1l-55.8,96.7c-1.7,2.9,-.7,6.7,2.2,8.3l.5,.3c2.9,1.7,6.7,.7,8.3,-2.2Zm93.1,-19.4l82.3,142.7c-.6,1,-1,2,-1.3,3.2c-1.9,6.9,2.2,14,9.1,15.8c6.9,1.9,13.9,-2.2,15.8,-9.1c1.8,-6.9,-2.3,-14,-9.1,-15.8c-1.2,-.3,-2.4,-.5,-3.5,-.5L293.9,253.6h47.7c1.1,0,2.2,-.3,3.2,-.9c3,-1.7,4.1,-5.6,2.3,-8.6L238.7,56.3c-1.4,-2.4,-3.8,-3.8,-6.6,-3.8c-2.8,0,-5.2,1.4,-6.6,3.8l-49.6,86.1c-1.8,3,-.8,6.9,2.3,8.7c3,1.7,6.9,.7,8.6,-2.4l3.1,-5.3l12.9,-22.3l7.4,-12.8l22,-38.1l98.5,170.7h-44L230.9,144.2c-1.7,-2.9,-5.4,-3.9,-8.3,-2.2l-.5,.3c-2.9,1.7,-3.9,5.4,-2.2,8.3Zm-29.5,90.2H25.7c-.6,-1,-1.3,-1.9,-2.1,-2.8c-5.1,-5,-13.3,-5,-18.3,0c-5,5.1,-5,13.2,0,18.3c5,5,13.2,5,18.3,0c.8,-.9,1.5,-1.8,2.1,-2.8H64.2L40.4,294.8c-.6,.9,-.9,2,-.9,3.2c0,3.5,2.8,6.3,6.3,6.3H262.6c2.8,0,5.2,-1.4,6.6,-3.8c1.4,-2.4,1.4,-5.2,0,-7.6L219.5,206.8c-1.7,-3,-5.6,-4.1,-8.6,-2.3c-3.1,1.7,-4.1,5.6,-2.4,8.7l3.1,5.3l12.9,22.3l7.4,12.8l22,38.1H56.8l22,-38.1H190.4c3.4,0,6.1,-2.8,6.1,-6.1v-.6c0,-3.3,-2.7,-6.1,-6.1,-6.1Z" class="g0"/>

</g>
</svg>
