<svg xmlns="http://www.w3.org/2000/svg" xmlns:xlink="http://www.w3.org/1999/xlink" width="349" height="314" display="block" version="1.1" style="margin-left:auto;margin-right:auto"><rect id="backgroundrect" width="100%" height="100%" x="0" y="0" fill="none" stroke="none"/><defs><clipPath id="c_1"><path id="svg_1" d="M0,0H349V314H0Z"/></clipPath><style type="text/css">.g0{fill:#179aff}</style></defs><g class="currentLayer"><title>Layer 1</title><path id="svg_3" fill="#FFF" stroke="none" d="M-0.8130081295967102,0 L-0.8130081295967102,314 L348.1869918704033,314 L348.1869918704033,0 z"/><path id="svg_4" fill-rule="evenodd" stroke="#179aff" stroke-opacity="1" stroke-width="11" d="M153.23597618717713,156.49543924625584 L200.34356298487143,68.9650146920074 c0.6860328174421503,0.06133876983479236 1.314896233430787,-0.06133876983479236 2.0009290508729367,-0.24535507933916906 c3.944688700292361,-1.104097857026259 6.2886341598863735,-5.459150515296503 5.202415532269635,-9.691525633897163 C206.51785834185077,54.79575886017041 202.4588308386514,52.28086929694393 198.51414213835903,53.446305923804985 c-3.944688700292361,1.104097857026259 -6.2886341598863735,5.459150515296503 -5.202415532269635,9.691525633897163 c0.1715082043605377,0.6747264681827146 0.4573552116281,1.3494529363654284 0.7432022188956625,1.9628406347133496 L183.07840374591063,85.58782131723606 L169.47208619997468,60.25490937546692 c-0.3430164087210754,-0.613387698347922 -0.8003716203491748,-1.104097857026259 -1.3720656348843,-1.4721304760350122 C166.38493852148505,57.74001981224044 164.15533186479803,58.35340751058836 163.1834520400883,60.193570605632125 L101.21182086448079,175.38778035537183 c-0.8003716203491748,1.4721304760350122 -0.8003716203491748,3.189616031409193 0,4.661746507444204 c0.8003716203491748,1.4721304760350122 2.172437255233474,2.3308732537221024 3.7160110944783113,2.3308732537221024 h56.826385044791415 c2.0009290508729367,0 3.658841693024799,-1.7174855553741812 3.658841693024799,-3.8643424995919062 c0,-2.146856944217726 -1.6579126421518624,-3.9256812694266987 -3.658841693024799,-3.9256812694266987 H109.95873928686818 L166.27059971857798,69.88509623952929 l12.577268319772747,23.370071307055817 l-31.90052601105996,59.314590430244024 c-0.9718798247097123,1.7788243252089726 -0.4001858101745873,4.109697578931075 1.2577268319772745,5.091117896287751 l0.2858470072675627,0.1840163095043767 c1.6579126421518624,1.0427590871914674 3.830349897385337,0.42937138884354575 4.745060320641537,-1.3494529363654284 zm53.224712753220125,-11.899721347949678 l47.05041739624077,87.5304245542484 c-0.3430164087210754,0.613387698347922 -0.5716940145351256,1.2267753966958437 -0.7432022188956625,1.9628406347133496 c-1.0862186276167367,4.232375118600659 1.2577268319772745,8.587427776870904 5.202415532269635,9.691525633897163 c3.944688700292361,1.1654366268610512 7.946546802038235,-1.3494529363654284 9.032765429654972,-5.5818280549660875 c1.029049226163225,-4.232375118600659 -1.314896233430787,-8.587427776870904 -5.202415532269635,-9.691525633897163 c-0.6860328174421503,-0.1840163095043767 -1.3720656348843,-0.30669384917396136 -2.0009290508729367,-0.30669384917396136 L248.76604601599647,207.77465082814206 h27.269804493325456 c0.6288634159886377,0 1.2577268319772745,-0.1840163095043767 1.8294208465124,-0.5520489285131296 c1.7150820436053746,-1.0427590871914674 2.3439454595940115,-3.4349711107483616 1.314896233430787,-5.275134205792127 L217.2085364136576,86.75325794409713 c-0.8003716203491748,-1.4721304760350122 -2.172437255233474,-2.3308732537221024 -3.7731804959318236,-2.3308732537221024 c-1.6007432406983495,0 -2.9728088755826487,0.8587427776870903 -3.7731804959318236,2.3308732537221024 l-28.356023120942194,52.81268082775605 c-1.029049226163225,1.8401630950437649 -0.4573552116281,4.232375118600659 1.314896233430787,5.3364729756269185 c1.7150820436053746,1.0427590871914674 3.944688700292361,0.42937138884354575 4.916568525002074,-1.4721304760350122 l1.772251445058887,-3.250954801243985 l7.3748527875031105,-13.678545673158652 l4.230535707559924,-7.851362538853397 l12.577268319772747,-23.370071307055817 l56.31186043170978,104.70528010799022 h-25.154536639545494 L212.74932310028365,140.67003662887942 c-0.9718798247097123,-1.7788243252089726 -3.0871476784896745,-2.392212023556894 -4.745060320641537,-1.3494529363654284 l-0.2858470072675627,0.1840163095043767 c-1.6579126421518624,1.0427590871914674 -2.229606656686987,3.312293571078777 -1.2577268319772745,5.091117896287751 zm-16.864973428786183,55.32757039098254 H95.43771131767603 c-0.3430164087210754,-0.613387698347922 -0.7432022188956625,-1.1654366268610512 -1.2005574305237627,-1.7174855553741812 c-2.9156394741291374,-3.0669384917396085 -7.60353039331716,-3.0669384917396085 -10.462000465992785,0 c-2.8584700726756243,3.1282772615744006 -2.8584700726756243,8.096717618192564 0,11.224994879766966 c2.8584700726756243,3.0669384917396085 7.546360991863647,3.0669384917396085 10.462000465992785,0 c0.4573552116281,-0.5520489285131296 0.8575410218026871,-1.104097857026259 1.2005574305237627,-1.7174855553741812 H117.44793087727834 L103.84161333134236,233.04622400007645 c-0.3430164087210754,0.5520489285131296 -0.5145246130816123,1.2267753966958437 -0.5145246130816123,1.9628406347133496 c0,2.146856944217726 1.6007432406983495,3.8643424995919062 3.601672291571287,3.8643424995919062 H230.87202336104713 c1.6007432406983495,0 2.9728088755826487,-0.8587427776870903 3.7731804959318236,-2.3308732537221024 c0.8003716203491748,-1.4721304760350122 0.8003716203491748,-3.189616031409193 0,-4.661746507444204 L206.23201133458323,179.06810654545936 c-0.9718798247097123,-1.8401630950437649 -3.201486481396699,-2.5148895632264785 -4.916568525002074,-1.4107917062002198 c-1.772251445058887,1.0427590871914674 -2.3439454595940115,3.4349711107483616 -1.3720656348843,5.3364729756269185 l1.772251445058887,3.250954801243985 l7.3748527875031105,13.678545673158652 l4.230535707559924,7.851362538853397 l12.577268319772747,23.370071307055817 H113.2173951697184 l12.577268319772747,-23.370071307055817 H189.59571551161108 c1.9437596494194245,0 3.4873334886642606,-1.7174855553741812 3.4873334886642606,-3.7416649599223213 v-0.36803261900875317 c0,-2.024179404548141 -1.5435738392448375,-3.7416649599223213 -3.4873334886642606,-3.7416649599223213 z" class="g0 selected"/></g></svg>