<svg xmlns="http://www.w3.org/2000/svg" xmlns:xlink="http://www.w3.org/1999/xlink" width="252" height="232" version="1.1" style="display: block; margin-left: auto; margin-right: auto;"><rect id="backgroundrect" width="100%" height="100%" x="0" y="0" fill="none" stroke="none" class="" style=""/>
<defs>
<clipPath id="c_1"><path d="M0,0H1289V912H0Z" id="svg_1"/></clipPath>
<style type="text/css"><![CDATA[

.g0{
fill: #179AFF;
}
.g1{
fill: #FFFFFF;
}

]]></style>

</defs>

<g class="currentLayer" style=""><title>Layer 1</title>





<g class=""><path fill-rule="evenodd" d="M-1.2782720659743063e-8,-1.8579737570689758e-7 H251.9974769277684 V231.55097510856962 H-1.2782720659743063e-8 z" class="g0" id="svg_4"/><path fill-rule="evenodd" d="M91.80775879025464,121.7794014930725 L149.70775879025462,21.57940149307251 c0.8,0 1.6,-0.1 2.5,-0.4 c4.8,-1.3 7.7,-6.2 6.4,-11.1 c-1.3,-4.8 -6.3,-7.7 -11.1,-6.4 c-4.9,1.3 -7.7,6.3 -6.4,11.1 c0.2,0.8 0.5,1.6 0.9,2.3 l-13.5,23.5 L111.70775879025462,11.479401493072487 c-0.4,-0.6000000000000005 -0.9,-1.2 -1.6,-1.6 c-2.2,-1.3 -4.9,-0.5 -6.1,1.6 l-76.2,132 c-1,1.7000000000000002 -1,3.6 0,5.3 c1,1.7000000000000002 2.7,2.7 4.6,2.7 h69.9 c2.5,0 4.4,-2 4.4,-4.4 c0,-2.5 -1.9,-4.5 -4.4,-4.5 H38.60775879025459 l69.2,-120 l15.5,26.8 l-39.2,68 c-1.2,2 -0.5,4.6 1.5,5.8 l0.4,0.2 c2,1.2 4.6,0.5 5.8,-1.6 zm65.4,-13.6 l57.9,100.3 c-0.4,0.7000000000000005 -0.7000000000000005,1.4 -1,2.3 c-1.3,4.8 1.6,9.8 6.5,11.1 c4.8,1.3 9.8,-1.6 11.1,-6.4 c1.3,-4.9 -1.6,-9.9 -6.4,-11.2 c-0.9,-0.2 -1.7000000000000002,-0.30000000000000027 -2.5,-0.30000000000000027 L209.30775879025464,180.5794014930725 h33.5 c0.7000000000000005,0 1.5,-0.2 2.2,-0.6000000000000005 c2.2,-1.2 2.9,-4 1.7000000000000002,-6.1 l-76.2,-132 c-1,-1.7000000000000002 -2.7,-2.6 -4.7,-2.6 c-1.9,0 -3.6,0.9 -4.6,2.6 l-34.9,60.5 c-1.3,2.2 -0.5,4.9 1.6,6.1 c2.1,1.3 4.9,0.5 6.1,-1.6 l2.1,-3.7 l9.1,-15.8 l5.2,-8.9 l15.4,-26.8 l69.3,120 H204.20775879025462 l-39.2,-68 c-1.2,-2 -3.8,-2.7 -5.9,-1.5 l-0.30000000000000027,0.2 c-2.1,1.1 -2.8,3.8 -1.6,5.8 zm-20.7,63.4 H20.707758790254616 c-0.4,-0.7000000000000005 -0.9,-1.3 -1.5,-1.9 c-3.5,-3.6 -9.3,-3.6 -12.8,0 c-3.6,3.5 -3.6,9.2 0,12.8 c3.5,3.5 9.3,3.5 12.8,0 c0.6000000000000005,-0.6000000000000005 1.1,-1.3 1.5,-2 h27.1 l-16.8,29 c-0.4,0.7000000000000005 -0.6000000000000005,1.5 -0.6000000000000005,2.3 c0,2.5 2,4.4 4.5,4.4 l152.4,0.1 c1.9,0 3.6,-1 4.6,-2.7 c1,-1.7000000000000002 1,-3.7 0,-5.4 L157.00775879025457,147.67940149307253 c-1.3,-2.1 -4,-2.8 -6.1,-1.6 c-2.2,1.2 -2.9,3.9 -1.7000000000000002,6.1 l2.2,3.7 l9.1,15.7 l5.1,9 l15.5,26.8 H42.60775879025459 l15.4,-26.8 h78.5 c2.4,0 4.3,-1.9 4.3,-4.3 v-0.4 c0,-2.4 -1.9,-4.3 -4.3,-4.3 z" class="g1" id="svg_5"/></g></g></svg>