<svg xmlns="http://www.w3.org/2000/svg" xmlns:xlink="http://www.w3.org/1999/xlink" width="291.5" height="267.111" display="block" version="1.1" style="margin-left:auto;margin-right:auto"><rect id="backgroundrect" width="100%" height="100%" x="0" y="0" fill="none" stroke="none"/><defs><clipPath id="c_1"><path id="svg_1" d="M0,0H1289V912H0Z"/></clipPath><style type="text/css">.g0{fill:#179aff}.g1{fill:#fff}</style></defs><g class="currentLayer"><title>Layer 1</title><path id="svg_4" fill-rule="evenodd" d="M-7.991555293074271e-7,-3.57627357061574e-7 H278.66415374719867 V255.71765018503072 H-7.991555293074271e-7 z" class="g0" transform="translate(6.666666507720947,6.666666507720947)"/><path id="svg_5" fill-rule="evenodd" stroke="#fff" stroke-opacity="1" stroke-width="11" d="M103.26243284346705,119.86003567291058 L150.06964277373572,41.02902000155314 c0.6467317434234036,0 1.2934634868468038,-0.07867366833468821 2.021036698198131,-0.3146946733387532 c3.8803904605404114,-1.022757688350945 6.224793030450243,-4.877767436750661 5.173853947387215,-8.732777185150375 c-1.0509390830630279,-3.7763360800650263 -5.09301247945929,-6.057872461770982 -8.973402939999701,-5.035114773420037 c-3.9612319284683366,1.022757688350945 -6.224793030450243,4.956441105085348 -5.173853947387215,8.732777185150375 c0.16168293585585072,0.6293893466775058 0.4042073396396263,1.2587786933550094 0.7275732113513272,1.8094943716978253 l-10.913598170269907,18.488312058651697 L119.34988496112413,33.08297949974963 c-0.3233658717117017,-0.47204201000812873 -0.7275732113513272,-0.9440840200162565 -1.2934634868468038,-1.2587786933550094 c-1.7785122944143552,-1.022757688350945 -3.9612319284683366,-0.3933683416734414 -4.9313295436034394,1.2587786933550094 l-61.60119856107903,103.84924220178826 c-0.8084146792792524,1.337452361689698 -0.8084146792792524,2.832252060048771 0,4.1697044217384684 c0.8084146792792524,1.337452361689698 2.1827196340539814,2.1241890450365783 3.718707524684561,2.1241890450365783 h56.50818608161974 c2.021036698198131,0 3.5570245888287104,-1.5734733666937615 3.5570245888287104,-3.461641406726276 c0,-1.966841708367202 -1.5359878906305808,-3.5403150750609633 -3.5570245888287104,-3.5403150750609633 H60.254771905810784 l55.942295806124264,-94.40840200162569 l12.530427528828412,21.084543113696405 l-31.689855427746693,53.49809446758789 c-0.9700976151351028,1.5734733666937615 -0.4042073396396263,3.6189887433956507 1.2126220189188786,4.563072763411908 l0.3233658717117017,0.1573473366693766 c1.6168293585585065,0.9440840200162565 3.718707524684561,0.3933683416734414 4.688805139819664,-1.2587786933550094 zm52.870320024863105,-10.699618893517577 l46.80720993026871,78.90968933969215 c-0.3233658717117017,0.5507156783428176 -0.5658902754954788,1.1014313566856333 -0.8084146792792524,1.8094943716978253 c-1.0509390830630279,3.7763360800650263 1.2934634868468038,7.710019496799433 5.25469541531514,8.732777185150375 c3.8803904605404114,1.022757688350945 7.922463856936673,-1.2587786933550094 8.973402939999701,-5.035114773420037 c1.0509390830630279,-3.8550097483997163 -1.2934634868468038,-7.78869316513412 -5.173853947387215,-8.811450853485063 c-0.7275732113513272,-0.1573473366693766 -1.374304954774729,-0.23602100500406464 -2.021036698198131,-0.23602100500406464 L198.2511576587792,166.12015265370718 h27.081891755854954 c0.5658902754954788,0 1.2126220189188786,-0.1573473366693766 1.7785122944143552,-0.47204201000812873 c1.7785122944143552,-0.9440840200162565 2.3444025699098323,-3.146946733387523 1.374304954774729,-4.799093768415973 l-61.60119856107903,-103.84924220178826 c-0.8084146792792524,-1.337452361689698 -2.1827196340539814,-2.04551537670189 -3.799548992612486,-2.04551537670189 c-1.5359878906305808,0 -2.9102928454053085,0.7080630150121927 -3.718707524684561,2.04551537670189 l-28.213672306845908,47.59756934248628 c-1.0509390830630279,1.7308207033631395 -0.4042073396396263,3.8550097483997163 1.2934634868468038,4.799093768415973 c1.6976708264864326,1.022757688350945 3.9612319284683366,0.3933683416734414 4.9313295436034394,-1.2587786933550094 l1.6976708264864326,-2.910925728383459 l7.3565735814411966,-12.430439596880717 l4.203756332252112,-7.001956481787239 l12.449586060900486,-21.084543113696405 l56.02313727405219,94.40840200162569 H194.128242794455 l-31.689855427746693,-53.49809446758789 c-0.9700976151351028,-1.5734733666937615 -3.071975781261159,-2.1241890450365783 -4.769646607747589,-1.1801050250203213 l-0.24252440378377604,0.1573473366693766 c-1.6976708264864326,0.8654103516815691 -2.2635611019819066,2.9895993967181465 -1.2934634868468038,4.563072763411908 zm-16.734183861080524,49.879105724192236 H45.78414914671218 c-0.3233658717117017,-0.5507156783428176 -0.7275732113513272,-1.022757688350945 -1.2126220189188786,-1.4947996983590732 c-2.8294513774773833,-2.832252060048771 -7.518256517297047,-2.832252060048771 -10.34770789477443,0 c-2.9102928454053085,2.7535783917140826 -2.9102928454053085,7.237977486791301 0,10.070229546840075 c2.8294513774773833,2.7535783917140826 7.518256517297047,2.7535783917140826 10.34770789477443,0 c0.4850488075675527,-0.47204201000812873 0.8892561472071777,-1.022757688350945 1.2126220189188786,-1.5734733666937615 h21.90803780846774 l-13.58136661189144,22.81536381705954 c-0.3233658717117017,0.5507156783428176 -0.4850488075675527,1.1801050250203213 -0.4850488075675527,1.8094943716978253 c0,1.966841708367202 1.6168293585585065,3.461641406726276 3.6378660567566357,3.461641406726276 l123.20239712215806,0.07867366833468821 c1.5359878906305808,0 2.9102928454053085,-0.7867366833468808 3.718707524684561,-2.1241890450365783 c0.8084146792792524,-1.337452361689698 0.8084146792792524,-2.910925728383459 0,-4.248378090073157 L155.97106993247425,140.23651577159484 c-1.0509390830630279,-1.6521470350284497 -3.2336587171170095,-2.2028627133712657 -4.9313295436034394,-1.2587786933550094 c-1.7785122944143552,0.9440840200162565 -2.3444025699098323,3.0682730650528347 -1.374304954774729,4.799093768415973 l1.7785122944143552,2.910925728383459 l7.3565735814411966,12.351765928546026 l4.122914864324187,7.080630150121927 l12.530427528828412,21.084543113696405 H63.488430622927794 l12.449586060900486,-21.084543113696405 h63.46055232342131 c1.9401952302702057,0 3.476183120900785,-1.4947996983590732 3.476183120900785,-3.382967738391587 v-0.3146946733387532 c0,-1.8881680400325136 -1.5359878906305808,-3.382967738391587 -3.476183120900785,-3.382967738391587 z" class="g1 selected" transform="translate(14.999999046325684,16.66666603088379)"/></g></svg>