<?xml version="1.0" encoding="iso-8859-1"?>
<!-- Generator: Adobe Illustrator 19.0.0, SVG Export Plug-In . SVG Version: 6.00 Build 0)  -->
<svg version="1.1" id="Layer_1" xmlns="http://www.w3.org/2000/svg" xmlns:xlink="http://www.w3.org/1999/xlink" x="0px" y="0px"
	 viewBox="0 0 504.509 504.509" style="enable-background:new 0 0 504.509 504.509;" xml:space="preserve">
<polygon style="fill:#1DEFFF;" points="252.509,318.357 8.509,459.157 252.509,44.757 252.509,315.957 "/>
<polygon style="fill:#1AC4FF;" points="252.509,318.357 8.509,459.157 252.509,115.157 252.509,315.957 "/>
<path style="fill:#2F5068;" d="M8.509,467.157c-2.4,0-4-0.8-5.6-2.4c-2.4-2.4-3.2-6.4-1.6-9.6l244-414.4c1.6-3.2,5.6-4.8,8.8-4
	c3.2,0.8,5.6,4,5.6,8v274.4c0,3.2-1.6,5.6-4,7.2l-243.2,140C10.909,467.157,10.109,467.157,8.509,467.157z M244.509,73.557
	l-213.6,364l213.6-123.2V73.557z"/>
<polygon style="fill:#128AC6;" points="252.509,318.357 496.509,459.157 252.509,44.757 252.509,315.957 "/>
<polygon style="fill:#00A2E2;" points="276.509,291.157 494.909,459.157 249.309,44.757 276.509,287.957 "/>
<path style="fill:#2F5068;" d="M496.509,467.157c-1.6,0-2.4,0-4-0.8l-244-140.8c-2.4-1.6-4-4-4-7.2v-273.6c0-3.2,2.4-6.4,5.6-8
	c3.2-0.8,7.2,0.8,8.8,4l244,415.2c1.6,3.2,1.6,7.2-1.6,9.6C500.509,466.357,498.109,467.157,496.509,467.157z M260.509,314.357
	l213.6,123.2l-213.6-364V314.357z"/>
<polygon style="fill:#086FB5;" points="8.509,459.957 252.509,319.157 496.509,459.957 "/>
<polygon style="fill:#128AC6;" points="8.509,459.957 252.509,366.357 496.509,459.957 "/>
<path style="fill:#2F5068;" d="M496.509,467.957L496.509,467.957h-488c-3.2,0-6.4-2.4-8-6.4s0.8-7.2,4-8.8l244-140.8
	c2.4-1.6,5.6-1.6,8,0l243.2,140c3.2,0.8,4.8,4,4.8,8S501.309,467.957,496.509,467.957z M38.109,451.957h428.8l-214.4-124
	L38.109,451.957z"/>
<g>
</g>
<g>
</g>
<g>
</g>
<g>
</g>
<g>
</g>
<g>
</g>
<g>
</g>
<g>
</g>
<g>
</g>
<g>
</g>
<g>
</g>
<g>
</g>
<g>
</g>
<g>
</g>
<g>
</g>
</svg>
